<svg height="26" viewBox="0 0 128 128" width="26" xmlns="http://www.w3.org/2000/svg">
    <path d="m89.84 25.134a2.413 2.413 0 1 0 -2.413-2.413 2.415 2.415 0 0 0 2.413 2.413z"/>
    <path d="m89.84 29.314a2.413 2.413 0 1 0 2.412 2.413 2.415 2.415 0 0 0 -2.412-2.413z"/>
    <path d="m85.337 29.636a2.413 2.413 0 1 0 -2.412-2.413 2.415 2.415 0 0 0 2.412 2.413z"/>
    <path d="m94.342 29.636a2.413 2.413 0 1 0 -2.412-2.413 2.415 2.415 0 0 0 2.412 2.413z"/>
    <path d="m22 103.14a2.413 2.413 0 1 0 -2.413-2.413 2.416 2.416 0 0 0 2.413 2.413z"/>
    <path d="m22 107.319a2.413 2.413 0 1 0 2.413 2.413 2.416 2.416 0 0 0 -2.413-2.413z"/>
    <path d="m17.5 102.817a2.413 2.413 0 1 0 2.413 2.413 2.416 2.416 0 0 0 -2.413-2.413z"/>
    <path d="m26.5 102.817a2.413 2.413 0 1 0 2.413 2.413 2.416 2.416 0 0 0 -2.413-2.413z"/>
    <path
        d="m39.814 24.622a1.749 1.749 0 0 0 2.475 0l4.626-4.622a1.75 1.75 0 0 0 0-2.475l-4.626-4.625a1.8 1.8 0 0 0 -2.475 0l-4.626 4.626a1.749 1.749 0 0 0 0 2.475zm1.237-8.014 2.149 2.151-2.149 2.151-2.151-2.151z"/>
    <path
        d="m105.468 103.378a1.8 1.8 0 0 0 -2.475 0l-4.625 4.622a1.749 1.749 0 0 0 0 2.475l4.625 4.626a1.749 1.749 0 0 0 2.475 0l4.626-4.626a1.75 1.75 0 0 0 0-2.475zm-1.237 8.014-2.15-2.151 2.15-2.15 2.151 2.15z"/>
    <path
        d="m65.237 63.872a1.749 1.749 0 0 0 -2.475 0l-4.762 4.763a1.749 1.749 0 0 0 0 2.475l4.764 4.764a1.749 1.749 0 0 0 2.475 0l4.761-4.764a1.749 1.749 0 0 0 0-2.475zm-1.237 8.289-2.289-2.288 2.289-2.289 2.289 2.289z"/>
    <path
        d="m110.684 34.987a9.542 9.542 0 0 0 -9.031 12.69l-9.769 5.995a68.4 68.4 0 0 0 -17.667-4.14l-3.681-5.832a9.566 9.566 0 1 0 -13.073 0l-3.681 5.829a68.312 68.312 0 0 0 -17.664 4.142l-9.771-6a9.56 9.56 0 1 0 -9.032 6.443c.133 0 .262-.015.394-.02l8.162 37.027c.192 2.825 4.043 4.858 12.074 6.382a146.82 146.82 0 0 0 26.055 2.06 146.824 146.824 0 0 0 26.054-2.053c8.031-1.524 11.882-3.557 12.074-6.382l8.162-37.028c.131.005.26.02.393.02a9.566 9.566 0 1 0 0-19.132zm-22.6 21.019-7.049 4.324-4.4-6.963a65.811 65.811 0 0 1 11.446 2.639zm-24.084-25.335a6.066 6.066 0 1 1 -6.066 6.066 6.073 6.073 0 0 1 6.066-6.066zm-12.638 22.695-4.4 6.963-7.046-4.324a65.754 65.754 0 0 1 11.446-2.639zm-40.112-8.812a6.066 6.066 0 1 1 11.393 2.9 6.065 6.065 0 0 1 -11.393-2.9zm87.388 46.264c-1.02 1.902-13.332 5.245-34.638 5.245s-33.618-3.343-34.637-5.245a1.735 1.735 0 0 0 -.039-.291l-.988-4.481c8.054 2.237 21.255 3.589 35.664 3.589s27.611-1.352 35.665-3.59l-.988 4.482a1.722 1.722 0 0 0 -.039.291zm1.892-8.7c-7.3 2.45-21.43 4.017-36.53 4.017s-29.228-1.567-36.53-4.016l-6.347-28.794a9.61 9.61 0 0 0 3.493-2.6l21.99 13.5a1.75 1.75 0 0 0 2.4-.558l11.4-18.067a9.492 9.492 0 0 0 7.187 0l11.407 18.059a1.75 1.75 0 0 0 2.395.558l21.991-13.5a9.61 9.61 0 0 0 3.494 2.6zm10.153-31.5a6.066 6.066 0 1 1 6.066-6.066 6.072 6.072 0 0 1 -6.065 6.068z"/>
</svg>
