<svg version="1.1" xmlns="http://www.w3.org/2000/svg" xmlns:xlink="http://www.w3.org/1999/xlink" x="0px" y="0px"
     viewBox="0 0 226.262 226.262" style="enable-background:new 0 0 226.262 226.262;" xml:space="preserve">
    <path d="M113.131,6.031C50.75,6.031,0,45.208,0,93.365c0,30.958,21.196,59.533,55.542,75.209
        c-5.924,32.347-7.907,42.069-8.566,44.973c-0.608,1.326-0.608,1.874-0.608,2.419l0.027,3.855l3.676,0.335
        c0.454,0.04,0.856,0.075,1.217,0.075c1.419,0,2.219-0.56,3.139-3.598c0.767-1.618,5.013-8.688,27.829-39.224
        c9.998,2.182,20.372,3.287,30.875,3.287c62.382,0,113.131-39.177,113.131-87.331C226.263,45.208,175.513,6.031,113.131,6.031z
         M113.131,172.615c-10.787,0-21.419-1.231-31.599-3.658l-2.581-0.615l-1.59,2.123c-8.185,10.934-14.211,19.125-18.644,25.296
        c1.758-9.316,3.745-20.107,5.346-28.871l0.58-3.18l-2.973-1.263C28.615,148.38,8.08,121.909,8.08,93.365
        c0-43.699,47.126-79.253,105.051-79.253c57.925,0,105.051,35.555,105.051,79.253S171.056,172.615,113.131,172.615z"/>
    <path stroke-width="4" fill="red" stroke="red" d="M133.333,46.435H92.929v28.283H64.646v40.404h28.283v28.283h40.404v-28.283h28.283V74.718h-28.283V46.435z
         M153.535,82.799v24.242h-28.283v28.283H101.01v-28.283H72.727V82.799h28.283V54.516h24.242v28.283H153.535z"/>
</svg>
