<svg enable-background="new 0 0 513.462 513.462" height="26" viewBox="0 0 513.462 513.462" width="26"
     xmlns="http://www.w3.org/2000/svg">
    <g>
        <path
            d="m238.204 472.862v-225.815h118l2.262 16.409 2.167 29.909c.347 4.786 1.992 9.386 4.758 13.307l25.792 36.55c30.241 42.855 21.028 101.973-20.819 133.593z"
            fill="#fff9e2"/>
        <path
            d="m368.549 499.188v-29.066c0-18.402-9.428-35.521-24.981-45.357l-73.457-46.46c-1.879-1.189-3.065-3.215-3.18-5.436l-1.817-35.066v-22.896h-54.82v22.896l-1.817 35.066c-.115 2.221-1.301 4.247-3.18 5.436l-73.457 46.46c-15.552 9.837-24.981 26.955-24.981 45.357v29.066c0 3.74 3.032 6.772 6.772 6.772h248.145c3.741 0 6.773-3.032 6.773-6.772z"
            fill="#ffcebf"/>
        <path
            d="m265.114 337.802v-15.89-7.006h-54.82v22.896l-1.817 35.066c-.115 2.221-1.301 4.247-3.18 5.436l-73.457 46.46c-15.552 9.836-24.981 26.956-24.981 45.357v29.066c0 3.74 3.032 6.772 6.772 6.772h21.432v-28.832c0-18.402 9.428-35.521 24.981-45.357l73.457-46.46c1.879-1.188 3.065-3.215 3.18-5.436 0 0 .117-2.151.272-4.978.412-7.506 6.205-13.625 13.682-14.398 5.472-.566 11.501-1.348 15.533-2.333z"
            fill="#ffb09e"/>
        <path
            d="m116.305 216.113-10.767-77.758c-5.288-38.192 10.339-76.282 40.927-99.755l6.513-4.998c23.943-18.374 54.521-25.804 84.226-20.467 29.705-5.337 60.283 2.093 84.226 20.467l6.513 4.998c30.588 23.473 46.216 61.563 40.927 99.755l-10.767 77.758-9.354 21.389h-224.269z"
            fill="#fff9e2"/>
        <path
            d="m153.186 138.355c-5.288-38.192 10.339-76.282 40.927-99.755l6.513-4.998c17.553-13.47 38.674-21.05 60.402-22.038-7.909-.359-15.897.146-23.824 1.571-29.705-5.337-60.283 2.093-84.226 20.467l-6.513 4.998c-30.588 23.473-46.216 61.563-40.927 99.755l10.767 77.758 8.175 21.389h47.648l-8.175-21.389z"
            fill="#fff2ca"/>
        <path
            d="m140.66 263.456h-9.66c-13.581 0-24.866-10.47-25.881-24.013-1.129-15.057 10.783-27.895 25.881-27.895h8.445 15.004v51.908z"
            fill="#ffb09e"/>
        <g>
            <path
                d="m334.748 263.456h9.66c13.581 0 24.866-10.47 25.881-24.013 1.129-15.057-10.783-27.895-25.881-27.895h-8.445-16.004v51.908z"
                fill="#ffcebf"/>
            <path
                d="m335.963 243.422c0 54.267-43.992 98.259-98.259 98.259-54.267 0-98.259-43.992-98.259-98.259v-59.203c0-8.338 6.759-15.096 15.096-15.096h42.164c2.481 0 4.864-.969 6.642-2.701l6.408-6.244c2.904-2.829 7.627-2.489 10.095.727l4.889 6.371c1.801 2.347 4.591 3.723 7.55 3.723h60.37c12.868 0 25.435-3.893 36.05-11.167 3.075-2.107 7.254.095 7.254 3.823z"
                fill="#ffdfcf"/>
            <path
                d="m158.521 505.96c-8.821-16.421-5.424-37.015 8.731-49.698 13.839-12.4 34.306-13.892 49.796-3.628l16.851 11.165c2.306 1.528 5.303 1.528 7.61 0l16.851-11.165c15.491-10.263 35.957-8.772 49.796 3.628 14.154 12.683 17.552 33.277 8.731 49.698z"
                fill="#99e6fc"/>
            <path
                d="m184.604 71.422-29.826-55.923c-.979-1.836.351-4.054 2.432-4.054h10.996c.268 0 .535.039.791.116l40.925 12.267c1.788.536 3.724.182 5.207-.952l18.54-14.185c2.087-1.597 4.985-1.597 7.072 0l18.54 14.185c1.482 1.134 3.419 1.488 5.207.952l40.925-12.267c.257-.077.523-.116.791-.116h10.996c2.081 0 3.411 2.218 2.432 4.054l-29.826 55.923z"
                fill="#fee45a"/>
        </g>
        <path
            d="m328.893 159.712c-10.903 6.782-23.061 11.287-35.901 11.287h-60.702c-2.958 0-5.748-1.376-7.549-3.723l-4.889-6.371c-2.468-3.216-7.191-3.556-10.095-.727l-6.408 6.244c-1.778 1.732-4.161 2.701-6.643 2.701h-2.614-39.549c-8.338 0-15.096 6.759-15.096 15.096v31.074 28.129c0 54.267 43.992 98.259 98.259 98.259 6.773 0 13.387-.686 19.774-1.991-44.789-9.151-78.484-48.774-78.484-96.268v-28.127c0-8.339 6.76-15.098 15.098-15.098h2.613c2.481 0 4.865-.969 6.642-2.701l6.408-6.244c2.904-2.829 7.626-2.489 10.095.727l4.889 6.371c1.801 2.347 4.591 3.723 7.549 3.723h60.702c12.84 0 24.998-4.505 35.901-11.287 3.055-1.901 7.071.288 7.071 3.942v-31.075c-.001-3.653-4.016-5.841-7.071-3.941z"
            fill="#ffcebf"/>
        <g>
            <path
                d="m313.161 450.676c-16.376-14.673-40.614-16.441-58.943-4.295l-16.514 10.941-16.514-10.941c-18.33-12.146-42.568-10.379-58.944 4.295-16.668 14.937-20.917 39.13-10.332 58.833 1.354 2.521 3.94 3.953 6.613 3.953 1.198-.001 2.414-.288 3.543-.895 3.649-1.961 5.018-6.508 3.058-10.156-7.297-13.584-4.365-30.264 7.128-40.563 11.293-10.12 28.009-11.337 40.649-2.963l16.851 11.165c4.828 3.199 11.067 3.2 15.895 0l16.852-11.165c12.64-8.372 29.357-7.155 40.648 2.962 11.494 10.301 14.426 26.98 7.129 40.564-1.96 3.648-.591 8.196 3.059 10.156 3.646 1.958 8.195.59 10.156-3.059 10.583-19.703 6.334-43.896-10.334-58.832z"/>
            <path
                d="m416.43 401.891c.106-4.141-3.164-7.583-7.305-7.689-4.136-.104-7.583 3.163-7.689 7.305-.595 23.147-9.882 44.712-25.875 60.834-2.273-17.998-12.374-34.041-27.983-43.915l-73.174-46.28-1.502-28.994c32.559-11.525 57.842-38.566 66.918-72.196h4.588c2.405 0 4.754-.269 7.026-.762l1.717 23.714c.446 6.147 2.56 12.056 6.111 17.088l25.792 36.551c5.272 7.472 9.354 15.645 12.132 24.292 1.021 3.181 3.968 5.208 7.139 5.208.76 0 1.533-.116 2.296-.361 3.943-1.267 6.113-5.49 4.847-9.435-3.243-10.098-8.007-19.637-14.157-28.353l-25.792-36.552c-1.979-2.804-3.157-6.098-3.406-9.523l-2.158-29.797c6.652-5.624 11.122-13.791 11.815-23.022.693-9.25-2.527-18.456-8.837-25.256-.881-.949-1.818-1.835-2.795-2.669.108-.363.197-.736.251-1.123l9.91-71.572c2.365-17.081.791-34.79-4.553-51.212-1.282-3.94-5.518-6.095-9.452-4.812-3.939 1.281-6.094 5.514-4.812 9.452 4.646 14.276 6.015 29.669 3.959 44.515l-9.364 67.629c-2.497-.591-5.068-.908-7.669-.908h-.945v-40.394c0-4.516-2.481-8.629-6.477-10.734-3.996-2.104-8.791-1.828-12.516.726-9.407 6.446-20.407 9.854-31.812 9.854h-60.368c-.623 0-1.222-.295-1.601-.789l-4.89-6.372c-2.48-3.23-6.233-5.252-10.297-5.544-4.06-.294-8.064 1.17-10.981 4.012l-6.409 6.245c-.378.369-.878.572-1.407.572h-42.164c-12.459 0-22.596 10.137-22.596 22.596v19.829h-.945c-2.937 0-5.839.394-8.636 1.144l-9.397-67.864c-4.908-35.443 9.678-70.994 38.064-92.777l6.511-4.997c.368-.282.751-.548 1.124-.825l18.285 34.283c-2.128.971-4.243 1.98-6.332 3.059l-7.218 3.727c-3.681 1.899-5.125 6.424-3.225 10.104s6.424 5.125 10.104 3.224l7.218-3.726c37.698-19.459 82.712-19.46 120.41.001l7.219 3.726c1.1.567 2.275.837 3.434.837 2.717-.001 5.339-1.481 6.671-4.063 1.899-3.681.455-8.204-3.226-10.104l-7.218-3.725c-2.353-1.214-4.734-2.351-7.135-3.429l18.09-33.918c.373.276.752.546 1.119.828l6.513 4.998c7.984 6.127 14.975 13.405 20.775 21.633 1.461 2.071 3.78 3.179 6.137 3.179 1.493 0 3.002-.445 4.315-1.372 3.385-2.387 4.194-7.065 1.808-10.451-6.675-9.465-14.717-17.839-23.902-24.889l-6.514-4.998c-1.022-.784-2.066-1.546-3.122-2.294l3.375-6.329c1.711-3.209 1.615-6.986-.256-10.104-1.87-3.118-5.158-4.979-8.794-4.979h-10.996c-1 0-1.992.146-2.945.432l-40.103 12.021-17.855-13.668c-4.766-3.645-11.421-3.645-16.187.001l-17.858 13.663-40.099-12.018c-.957-.288-1.949-.434-2.949-.434h-10.995c-3.636 0-6.924 1.861-8.795 4.979-1.871 3.117-1.966 6.895-.255 10.104l3.375 6.329c-1.052.751-2.101 1.51-3.123 2.294l-6.513 4.998c-32.657 25.062-49.436 65.959-43.791 106.734l10.186 73.565c-.625.578-1.237 1.172-1.82 1.799-6.309 6.801-9.53 16.006-8.836 25.256 1.302 17.356 15.955 30.952 33.36 30.952h4.601c2.222 8.259 5.43 16.243 9.59 23.734 2.01 3.622 6.575 4.928 10.198 2.916 3.621-2.011 4.927-6.576 2.916-10.197-7.431-13.382-11.359-28.593-11.359-43.987v-59.203c0-4.188 3.408-7.596 7.596-7.596h42.164c4.463 0 8.681-1.716 11.876-4.829l5.819-5.671 4.39 5.72c3.199 4.168 8.246 6.656 13.5 6.656h60.369c12.667 0 24.939-3.319 35.804-9.643v74.565c0 50.045-40.714 90.76-90.759 90.76-22.646 0-44.333-8.388-61.068-23.619-3.063-2.786-7.807-2.564-10.595.499s-2.565 7.807.498 10.595c10.546 9.599 22.782 16.859 35.967 21.509l-1.501 28.98-73.174 46.28c-17.828 11.276-28.471 30.603-28.471 51.696v35.838c0 4.143 3.358 7.5 7.5 7.5s7.5-3.357 7.5-7.5v-35.838c0-15.921 8.034-30.508 21.489-39.019l57.759-36.531 37.096 29.535v8.875c0 4.143 3.358 7.5 7.5 7.5 4.143 0 7.5-3.357 7.5-7.5v-9.671l36.097-28.739 57.759 36.531c13.456 8.511 21.489 23.098 21.489 39.019v35.838c0 4.143 3.357 7.5 7.5 7.5s7.5-3.357 7.5-7.5v-24.066c24.869-19.333 39.57-48.401 40.382-80.001zm-72.022-182.843c5.192 0 9.997 2.097 13.528 5.902 3.531 3.807 5.262 8.754 4.873 13.933-.718 9.573-8.801 17.073-18.401 17.073h-1.691c.488-4.112.746-8.293.746-12.534v-24.374zm-176.899-200.103 40.258 12.066c4.079 1.226 8.535.409 11.918-2.18l17.519-13.403 17.52 13.404c3.386 2.59 7.843 3.401 11.916 2.18l40.259-12.067h2.395l-25.724 48.23c-30.037-9.902-62.598-9.817-92.586.273l-25.869-48.503zm-36.509 237.011c-9.601 0-17.685-7.5-18.402-17.073-.388-5.178 1.343-10.126 4.874-13.933 3.532-3.806 8.336-5.902 13.528-5.902h.945v24.374c0 4.198.261 8.383.756 12.534zm113.598 149.063c-1.318-2.153-3.685-3.595-6.394-3.595-2.935 0-5.469 1.689-6.701 4.146l-24.475-19.486 2.279-1.441c3.93-2.486 6.419-6.742 6.66-11.388l1.35-26.054c6.665 1.305 13.487 1.979 20.387 1.979 6.973 0 13.787-.686 20.387-1.979l1.35 26.055c.241 4.645 2.731 8.9 6.661 11.387l2.279 1.441z"/>
            <path
                d="m237.704 50.204c4.143 0 7.5-3.357 7.5-7.5v-5.305c0-4.143-3.357-7.5-7.5-7.5-4.142 0-7.5 3.357-7.5 7.5v5.305c0 4.143 3.358 7.5 7.5 7.5z"/>
        </g>
    </g>
</svg>
